<mxfile host="app.diagrams.net" modified="2023-07-20T01:28:37.109Z" agent="Mozilla/5.0 (Windows NT 10.0; Win64; x64) AppleWebKit/537.36 (KHTML, like Gecko) Chrome/114.0.0.0 Safari/537.36" version="21.6.2" etag="0TmDEqDfuWPBjlIChfuM" type="github">
  <diagram name="Page-1" id="rhjKS9WmLyzjpJ7BUIso">
    <mxGraphModel>
      <root>
        <mxCell id="0" />
        <mxCell id="1" parent="0" />
      </root>
    </mxGraphModel>
  </diagram>
</mxfile>
